<svg width="31" height="31" fill="none" xmlns="http://www.w3.org/2000/svg"><g clip-path="url('#clip0_1271_2219')"><path d="M31 0H0v31h31V0Z" fill="#D86613"/><path d="M24.59 12.424v8.453l-7.44 4.299v-3.208l4.134-2.385a.826.826 0 0 0 .413-.603 2.065 2.065 0 0 0 0-.323v-4.703l2.894-1.654v.124Zm.584-1.364a.243.243 0 0 0-.12.03l-3.948 2.28c-.074.042-.235.117-.235.212v5.075c.004.07.004.14 0 .211l-4.423 2.55a.248.248 0 0 0-.12.211v4.547a.243.243 0 0 0 .364.21l8.61-4.96a.247.247 0 0 0 .12-.21V11.27a.24.24 0 0 0-.244-.24l-.005.03Z" fill="#fff"/><path d="M14.845 26.843a.653.653 0 0 1-.327-.087l-8.613-4.96a.653.653 0 0 1-.327-.566V10.28a.653.653 0 0 1 .327-.565l9.473-5.469a.644.644 0 0 1 .657 0l8.61 4.96a.657.657 0 0 1 0 1.137l-9.147 5.29V26.19a.645.645 0 0 1-.326.566.653.653 0 0 1-.327.087Zm-8.44-5.724 8.267 4.77V15.533a.66.66 0 0 1 .326-.57l8.973-5.175-8.266-4.774-9.296 5.373-.004 10.73Z" fill="#fff"/></g><defs><clipPath id="clip0_1271_2219"><path fill="#fff" d="M0 0h31v31H0z"/></clipPath></defs></svg>