<svg width="31" height="31" fill="none" xmlns="http://www.w3.org/2000/svg"><g clip-path="url('#clip0_1271_2070')"><path d="M31 0H0v31h31V0Z" fill="url('#paint0_linear_1271_2070')"/><path d="M18.806 15.782a.414.414 0 0 1-.414-.376v-.112c-.058-.537-.268-.74-.694-1.145l-.132-.128a2.964 2.964 0 0 0-2.067-.826c-1.285 0-2.72.55-2.893 2.095v.12a.413.413 0 1 1-.827 0c-.041-.611-.285-.847-.773-1.318l-.054-.058a2.964 2.964 0 0 0-2.066-.827c-1.575 0-2.703.798-2.894 2.03a.415.415 0 0 1-.826-.075 10.214 10.214 0 0 1 10.333-9.978c5.787 0 10.23 4.29 10.333 9.987v.04a.413.413 0 1 1-.826 0v-.028c0-.343-.34-.682-.827-1.158a2.94 2.94 0 0 0-2.067-.826c-1.268 0-2.785.579-2.893 2.203a.413.413 0 0 1-.413.384v-.004Zm-9.92-3.414a3.766 3.766 0 0 1 2.633 1.066l.066.063c.198.182.383.378.554.586.578-1.062 1.798-1.682 3.364-1.682a3.762 3.762 0 0 1 2.633 1.054l.128.124c.18.163.347.338.5.525.583-1.062 1.807-1.715 3.348-1.715a3.766 3.766 0 0 1 2.638 1.066l.086.083c-.826-4.415-4.584-7.544-9.337-7.544A9.358 9.358 0 0 0 6.265 13.2a4.133 4.133 0 0 1 2.62-.83Z" fill="#fff"/><path d="m5.826 14.83-.451.693 3.696 2.406.451-.692-3.696-2.406ZM25.188 14.86l-3.297 2.296.472.679 3.297-2.296-.472-.678ZM18.782 17.262l-.802-.219.413-1.736v-.413c0-5.254-1.512-8.912-2.893-8.912-1.38 0-2.893 3.662-2.893 8.916v.397l.413 1.74-.798.219-.413-1.786v-.587c-.029-6.303 1.889-9.713 3.691-9.713 1.802 0 3.72 3.414 3.72 9.742v.285a1.408 1.408 0 0 0 0 .186.138.138 0 0 1 0 .058.158.158 0 0 1 0 .062l-.438 1.761ZM13.708 23.25l-1.517-1.492a.415.415 0 0 1-.074-.492.414.414 0 0 1 .116-.132l1.71-1.294.497.661-1.323.992 1.182 1.153-.59.604ZM17.488 23.495l-.496-.661 1.327-.992-1.166-1.153.58-.591 1.528 1.492a.415.415 0 0 1-.04.628l-1.733 1.277ZM16.405 19.26l-2.186 4.959.756.333 2.186-4.958-.756-.334Z" fill="#fff"/><path d="M20.872 25.834H10.538a.413.413 0 0 1-.413-.413v-7.027a.413.413 0 0 1 .413-.413h10.334a.413.413 0 0 1 .413.413v7.027a.413.413 0 0 1-.413.413Zm-9.92-.827h9.506v-6.2h-9.506v6.2Z" fill="#fff"/></g><defs><linearGradient id="paint0_linear_1271_2070" x1="-6.422" y1="37.42" x2="37.419" y2="-6.42" gradientUnits="userSpaceOnUse"><stop stop-color="#2E27AD"/><stop offset="1" stop-color="#527FFF"/></linearGradient><clipPath id="clip0_1271_2070"><path fill="#fff" d="M0 0h31v31H0z"/></clipPath></defs></svg>