<svg width="26" height="32" fill="none" xmlns="http://www.w3.org/2000/svg"><g clip-path="url('#clip0_1271_2237')"><path d="m8.354 48.297-5.842 1.321v-37.5l5.842 1.323v34.856ZM15.644 50.512l-7.289 2.053V9.225l7.29 2.05v39.237Zm9.35 2.274-9.35 3.392V5.61l9.35 3.39v43.785Zm25.001-4.375-25 12.39V.978l25 12.39v35.044Z" fill="#F68536"/><path d="m20.012 3.447 4.983-2.47v59.825l-4.983-2.47V3.447Zm-8.225 4.075 3.858-1.912v50.558l-3.858-1.912V7.522Zm-6.504 3.224 3.073-1.523v43.332L5.283 51.03V10.746Zm-2.769 1.372L.008 13.36V48.42l2.506 1.241V12.118Z" fill="#9D5025"/></g><defs><clipPath id="clip0_1271_2237"><path fill="#fff" transform="translate(0 .977)" d="M0 0h25.776v30.931H0z"/></clipPath></defs></svg>