<svg width="152" height="23" fill="none" xmlns="http://www.w3.org/2000/svg"><path d="M16.27 21.428c-1.29.86-3.335 1.217-5.486 1.217C3.97 22.645.133 18.567.133 12.02c0-6.296 3.837-10.696 10.615-10.696 2.008 0 4.052.394 5.522 1.431V5.51c-1.47-.93-3.12-1.431-5.522-1.431-4.877 0-7.746 3.22-7.746 7.977 0 4.758 3.012 7.906 7.925 7.906 2.188 0 3.873-.501 5.38-1.252v2.718h-.037ZM18.242 14.453c0-4.722 2.762-8.156 7.495-8.156 4.698 0 7.46 3.434 7.46 8.156s-2.762 8.228-7.46 8.228c-4.698-.036-7.495-3.506-7.495-8.228Zm2.654 0c0 3.005 1.47 5.688 4.877 5.688 3.335 0 4.805-2.719 4.805-5.688s-1.434-5.652-4.805-5.652c-3.407 0-4.877 2.647-4.877 5.652ZM49.768 22.358h-2.725v-9.515c0-2.826-1.148-4.078-3.73-4.078-2.51 0-4.267 1.68-4.267 4.865v8.764H36.32V6.654h2.726V9.23c1.004-1.86 2.869-2.898 4.984-2.898 3.622 0 5.702 2.504 5.702 6.833v9.193h.036ZM61.42 6.618v2.504h-4.087v13.236h-2.654V9.122h-2.546V6.618h2.546V4.901c0-2.933 1.65-4.901 5.02-4.901.825 0 1.363.143 1.83.25v2.505c-.467-.108-1.076-.144-1.722-.144-1.685 0-2.51.966-2.51 2.397v1.61h4.124ZM68.56 22.429c-2.582 0-4.232-1.216-4.232-4.114V.035h2.725v17.958c0 1.431.933 1.932 2.117 1.932.287 0 .466 0 .789-.036v2.433c-.251.071-.718.107-1.4.107ZM72.25 6.617h2.725v9.516c0 2.826 1.148 4.078 3.73 4.078 2.51 0 4.267-1.681 4.267-4.865V6.617h2.726v15.74h-2.726v-2.575c-1.004 1.86-2.869 2.897-4.985 2.897-3.622 0-5.701-2.504-5.701-6.832v-9.23h-.036ZM97.32 22.646c-5.918 0-8.5-3.399-8.5-8.228 0-4.758 2.653-8.156 7.46-8.156 4.876 0 6.812 3.362 6.812 8.156v1.216h-11.51c.393 2.683 2.115 4.4 5.844 4.4 1.83 0 3.371-.357 4.806-.858v2.504c-1.327.715-3.335.966-4.913.966Zm-5.81-9.301h8.821c-.143-2.934-1.47-4.58-4.196-4.58-2.869 0-4.339 1.825-4.626 4.58ZM119.698 22.358h-2.725v-9.515c0-2.826-1.148-4.078-3.73-4.078-2.51 0-4.267 1.68-4.267 4.865v8.764h-2.726V6.654h2.726V9.23c1.004-1.86 2.869-2.898 4.984-2.898 3.622 0 5.702 2.504 5.702 6.833v9.193h.036ZM134.647 21.93c-.932.501-2.401.716-3.836.716-5.63 0-8.249-3.399-8.249-8.228 0-4.758 2.619-8.156 8.249-8.156 1.435 0 2.509.179 3.765.75v2.505c-1.005-.465-2.08-.751-3.551-.751-4.088 0-5.772 2.575-5.772 5.652 0 3.076 1.721 5.652 5.845 5.652 1.614 0 2.618-.215 3.586-.572v2.432h-.037ZM145.265 22.646c-5.917 0-8.499-3.399-8.499-8.228 0-4.758 2.654-8.156 7.459-8.156 4.877 0 6.814 3.362 6.814 8.156v1.216h-11.512c.395 2.683 2.116 4.4 5.846 4.4 1.829 0 3.371-.357 4.805-.858v2.504c-1.327.715-3.299.966-4.913.966Zm-5.773-9.301h8.821c-.143-2.934-1.47-4.58-4.195-4.58-2.905 0-4.34 1.825-4.626 4.58Z" fill="#253858"/></svg>