<svg width="42" height="42" fill="none" xmlns="http://www.w3.org/2000/svg"><path d="M12.602 28.56h-5.04c-3.36-.84-5.964-3.529-5.964-6.973 0-2.94 1.848-5.544 4.452-6.552 0-.336-.084-.588-.084-.924a9.034 9.034 0 0 1 9.072-9.072c2.772 0 5.292 1.26 7.056 3.36a7.484 7.484 0 0 1 3.276-.756c3.948 0 7.392 3.528 7.476 7.392L19.322 9.491l-6.72 4.116V28.56Z" fill="#59B4D9"/><path d="m37.798 32.256-18.564 3.528.084-13.02 18.48 3.444v6.048ZM19.234 11.172l18.564 6.972V25.2l-18.48-3.948" fill="#959595"/><path d="m19.321 21.254-5.04 2.352v-9.324l5.04-3.024v9.996Zm17.64 3.108-16.8-3.864v-8.316l16.8 6.216v5.964Zm-9.24-3.024 1.68.42v-5.46l-1.68-.588v5.628Zm-1.68-6.048-1.68-.588v5.796l1.68.504V15.29Zm5.04 6.972 1.68.42v-5.208l-1.68-.588v5.376Zm-10.08-2.688 1.68.42V14.03l-1.68-.588v6.132Zm15.12-.924-1.68-.588v5.04l1.68.42V18.65Zm-15.96 5.544v10.752l16.8-3.108v-5.124l-16.8-2.52Zm.84 9.492V25.37l1.68.168v7.812l-1.68.336Zm5.04-.84-1.68.336v-7.308l1.68.252v6.72Zm1.68-.252V26.21l1.68.168v5.88l-1.68.336Zm5.04-.924-1.68.252v-5.376l1.68.252v4.872Zm3.444-.504-1.764.252V27.05l1.596.168.168 3.948Z" fill="#B3B4B5"/><path d="m15.961 21.083-.84.504v-6.636l.84-.42v6.552Zm1.68-7.56-.84.588v6.468l.84-.42v-6.636Z" fill="#959595"/><path d="M14.281 32.846v-7.644l5.04-2.436V35.87" fill="#B3B4B5"/><path d="m15.877 32.845-.756-.42v-6.468l.756-.336v7.224Zm1.764-8.064-.84.42v8.148l.84.42v-8.988Z" fill="#959595"/><path d="m36.121 19.235-15.12-5.04v-.672l15.12 5.208v.504Zm-.084 7.98-15.036-1.848v.672l15.036 1.764v-.588ZM17.641 14.363v-.84l-2.436 1.344v.672l2.436-1.176Zm-2.52 12.096 2.52-.924v-.672l-2.52 1.092v.504Z" fill="#7A7A7A"/><path opacity=".2" d="M37.8 18.229v14.028l-18.48 3.528 14.028-19.32 4.452 1.764Z" fill="#fff"/></svg>