<svg width="60" height="63" fill="none" xmlns="http://www.w3.org/2000/svg"><path fill-rule="evenodd" clip-rule="evenodd" d="M45.099 60.172a47.195 47.195 0 0 1-13.27 1.886c-4.634 0-9.097-.663-13.278-1.888 1.931.208 2.645-.924 2.645-1.901 0-.426-.008-1.176-.019-2.18-.012-1.163-.029-2.664-.04-4.394-11.936 2.336-14.454-5.182-14.454-5.182C4.733 42.05 1.92 40.86 1.92 40.86c-3.896-2.4.295-2.35.295-2.35 4.304.273 6.57 3.983 6.57 3.983 3.83 5.907 10.043 4.202 12.489 3.21.389-2.497 1.499-4.2 2.724-5.167-9.528-.975-19.544-4.29-19.544-19.102 0-4.22 1.671-7.67 4.417-10.374-.442-.978-1.915-4.906.418-10.228 0 0 3.604-1.04 11.8 3.962 3.424-.858 7.093-1.285 10.742-1.303 3.645.017 7.316.445 10.743 1.303C50.764-.207 54.36.832 54.36.832c2.341 5.322.869 9.25.426 10.228 2.752 2.704 4.412 6.153 4.412 10.374 0 14.848-10.032 18.117-19.59 19.073 1.54 1.194 2.913 3.552 2.913 7.159 0 3.455-.024 6.463-.04 8.457-.008.987-.014 1.726-.014 2.146 0 .982.696 2.117 2.632 1.904Z" fill="#fff"/></svg>