<svg width="42" height="56" fill="none" xmlns="http://www.w3.org/2000/svg"><path fill-rule="evenodd" clip-rule="evenodd" d="M20.88 0C11.4 0 3.71 7.395 3.71 16.517c0 2.356.524 4.596 1.446 6.624L21.174 48.69l15.432-25.549c.95-2.08 1.44-4.338 1.438-6.624C38.044 7.395 30.363 0 20.88 0Zm0 28.233A10.784 10.784 0 0 1 10.116 17.42 10.785 10.785 0 0 1 20.88 6.613a10.794 10.794 0 0 1 10.77 10.808 10.794 10.794 0 0 1-10.77 10.812Zm6.9-10.951a6.913 6.913 0 0 1-6.903 6.927 6.917 6.917 0 0 1-6.899-6.927 6.91 6.91 0 0 1 6.9-6.92c3.81 0 6.902 3.102 6.902 6.92Z" fill="#3697E1"/><path fill-rule="evenodd" clip-rule="evenodd" d="M11.457 41.153c-5.992 1.27-8.48 2.939-8.48 4.813 0 2.684 6.39 6.383 17.854 6.383 11.464 0 17.854-3.7 17.854-6.383 0-1.867-2.471-3.486-8.38-4.813v-2.861c6.51 1.277 11.356 3.842 11.356 7.674 0 5.528-10.734 9.667-20.83 9.667C10.735 55.633 0 51.493 0 45.966c0-3.839 4.879-6.453 11.422-7.685l.035 2.872Z" fill="#3697E1"/></svg>