<svg width="722" height="58" fill="none" xmlns="http://www.w3.org/2000/svg"><g filter="url('#filter0_d_1271_2163')"><path fill-rule="evenodd" clip-rule="evenodd" d="M7.898 46.974V0H708.493c6.354 0 11.506 3.146 11.506 7.027v39.947c0 3.88-5.152 7.026-11.506 7.026H7.898v-7.026Z" fill="#fff" fill-opacity=".92"/></g><g filter="url('#filter1_d_1271_2163')"><path fill-rule="evenodd" clip-rule="evenodd" d="M9.213 53.41h699.289c5.862 0 10.615-2.901 10.615-6.48V7.02c0-3.579-4.753-6.48-10.615-6.48H9.212v52.87Zm-.885.54h700.174c6.351 0 11.499-3.143 11.499-7.02V7.02c0-3.877-5.148-7.02-11.499-7.02H8.328v53.95Z" fill="#F4F4F4"/></g><path d="M0 .54C0 .242.396 0 .885 0H11.6c.488 0 .884.242.884.54v52.87c0 .298-.396.54-.884.54H.885c-.489 0-.885-.242-.885-.54V.54Z" fill="url('#paint0_linear_1271_2163')"/><defs><filter id="filter0_d_1271_2163" x="5.898" y="0" width="716.102" height="58" filterUnits="userSpaceOnUse" color-interpolation-filters="sRGB"><feFlood flood-opacity="0" result="BackgroundImageFix"/><feColorMatrix in="SourceAlpha" values="0 0 0 0 0 0 0 0 0 0 0 0 0 0 0 0 0 0 127 0" result="hardAlpha"/><feOffset dy="2"/><feGaussianBlur stdDeviation="1"/><feColorMatrix values="0 0 0 0 0 0 0 0 0 0 0 0 0 0 0 0 0 0 0.07 0"/><feBlend in2="BackgroundImageFix" result="effect1_dropShadow_1271_2163"/><feBlend in="SourceGraphic" in2="effect1_dropShadow_1271_2163" result="shape"/></filter><filter id="filter1_d_1271_2163" x="6.328" y="0" width="715.672" height="57.949" filterUnits="userSpaceOnUse" color-interpolation-filters="sRGB"><feFlood flood-opacity="0" result="BackgroundImageFix"/><feColorMatrix in="SourceAlpha" values="0 0 0 0 0 0 0 0 0 0 0 0 0 0 0 0 0 0 127 0" result="hardAlpha"/><feOffset dy="2"/><feGaussianBlur stdDeviation="1"/><feColorMatrix values="0 0 0 0 0 0 0 0 0 0 0 0 0 0 0 0 0 0 0.07 0"/><feBlend in2="BackgroundImageFix" result="effect1_dropShadow_1271_2163"/><feBlend in="SourceGraphic" in2="effect1_dropShadow_1271_2163" result="shape"/></filter><linearGradient id="paint0_linear_1271_2163" x1="12.486" y1="26.424" x2="0" y2="26.424" gradientUnits="userSpaceOnUse"><stop stop-color="#86B8F0"/><stop offset="1" stop-color="#A9EAFF" stop-opacity=".58"/></linearGradient></defs></svg>