<svg width="338" height="447" fill="none" xmlns="http://www.w3.org/2000/svg"><path d="M0 61.074V385.93c0 33.727 75.495 61.074 168.612 61.074V61.074H0Z" fill="#0072C6"/><path d="M166.305 446.995h2.312c93.117 0 168.612-27.33 168.612-61.065V61.074H166.305v385.921Z" fill="#0072C6"/><path opacity=".15" d="M166.305 446.995h2.312c93.117 0 168.612-27.33 168.612-61.065V61.074H166.305v385.921Z" fill="#fff"/><path d="M337.225 61.065c0 33.726-75.495 61.065-168.613 61.065C75.495 122.13 0 94.791 0 61.065S75.495 0 168.612 0c93.118 0 168.613 27.339 168.613 61.065" fill="#fff"/><path d="M302.749 57.555c0 22.265-60.057 40.293-134.139 40.293-74.083 0-134.15-18.028-134.15-40.293 0-22.256 60.067-40.293 134.15-40.293 74.082 0 134.139 18.037 134.139 40.293Z" fill="#7FBA00"/><path d="M274.652 82.168c17.561-6.81 28.113-15.338 28.113-24.604 0-22.265-60.058-40.302-134.149-40.302-74.082 0-134.14 18.037-134.14 40.302 0 9.266 10.553 17.794 28.113 24.604 24.523-9.518 62.846-15.662 106.027-15.662 43.19 0 81.495 6.144 106.036 15.662Z" fill="#B8D432"/></svg>