<svg width="33" height="24" fill="none" xmlns="http://www.w3.org/2000/svg"><path d="m14.873 6.117-4.97 1.899V0l4.97 1.76v4.357Z" fill="#804998"/><path d="M5.383 1.318v5.265l3.723 1.416V0L5.383 1.318Zm.408 4.883-.203-.063v-4.36l.203-.056.213-.06.227-.064v4.74l-.227-.07-.213-.067Zm.933.29-.254-.08v-4.88l.254-.072.27-.076.289-.081v5.361l-.289-.09-.27-.083Zm1.196.37-.33-.103V1.215l.33-.093.352-.099.381-.107v6.172l-.38-.118-.353-.11Z" fill="#68217A"/><path d="m26.506 6.117-4.97 1.899V0l4.97 1.76v4.357Z" fill="#804998"/><path d="M17.016 1.318v5.265l3.723 1.416V0l-3.723 1.318Zm.407 4.883-.203-.063v-4.36l.203-.056.213-.06.227-.064v4.74l-.227-.07-.213-.067Zm.934.29-.255-.08v-4.88l.255-.072.27-.076.288-.081v5.361l-.289-.09-.27-.083Zm1.195.37-.33-.103V1.215l.33-.093.353-.099.38-.107v6.172l-.38-.118-.353-.11Z" fill="#68217A"/><path d="M14.873 22.102 9.902 24v-8.016l4.97 1.761v4.357Z" fill="#804998"/><path d="M5.383 17.303v5.265l3.723 1.416v-8l-3.723 1.32Zm.408 4.883-.203-.063v-4.36l.203-.056.213-.06.227-.064v4.74l-.227-.07-.213-.067Zm.933.289-.254-.079v-4.88l.254-.072.27-.076.289-.082v5.362l-.289-.09-.27-.083Zm1.196.37-.33-.102V17.2l.33-.093.352-.1.381-.107v6.172l-.38-.118-.353-.109Z" fill="#68217A"/><path d="M26.506 22.102 21.536 24v-8.016l4.97 1.761v4.357Z" fill="#804998"/><path d="M17.016 17.303v5.265l3.723 1.416v-8l-3.723 1.32Zm.407 4.883-.203-.063v-4.36l.203-.056.213-.06.227-.064v4.74l-.227-.07-.213-.067Zm.934.289-.255-.079v-4.88l.255-.072.27-.076.288-.082v5.362l-.289-.09-.27-.083Zm1.195.37-.33-.102V17.2l.33-.093.353-.1.38-.107v6.172l-.38-.118-.353-.109Z" fill="#68217A"/><path d="m21.064 14.086-4.97 1.898V7.969l4.97 1.76v4.357Z" fill="#804998"/><path d="M11.574 9.287v5.264l3.723 1.417v-8l-3.723 1.319Zm.408 4.883-.203-.063v-4.36l.203-.057.213-.06.227-.063v4.74l-.227-.07-.213-.067Zm.933.29-.255-.08V9.5l.255-.071.27-.077.288-.08v5.36l-.288-.09-.27-.083Zm1.196.369-.33-.102V9.184l.33-.093.352-.1.381-.106v6.171l-.38-.117-.353-.11Z" fill="#68217A"/><path d="m9.49 14.086-4.97 1.898V7.969l4.97 1.76v4.357Z" fill="#804998"/><path d="M0 9.287v5.264l3.723 1.417v-8L0 9.288Zm.408 4.883-.203-.063v-4.36l.203-.057.213-.06.227-.063v4.74l-.227-.07-.213-.067Zm.933.29-.255-.08V9.5l.255-.071.27-.077.289-.082v5.361l-.289-.09-.27-.082Zm1.196.369-.33-.102V9.184l.33-.093.352-.1.38-.106v6.171l-.38-.117-.352-.11Z" fill="#68217A"/><path d="m32.49 14.086-4.97 1.898V7.969l4.97 1.76v4.357Z" fill="#804998"/><path d="M23 9.287v5.264l3.723 1.417v-8L23 9.288Zm.407 4.883-.202-.063v-4.36l.203-.057.213-.06.227-.063v4.74l-.227-.07-.213-.067Zm.934.29-.255-.08V9.5l.255-.071.27-.077.288-.08v5.36l-.288-.09-.27-.083Zm1.196.369-.33-.102V9.184l.33-.093.352-.1.38-.106v6.171l-.38-.117-.352-.11Z" fill="#68217A"/></svg>