<svg width="50" height="16" fill="none" xmlns="http://www.w3.org/2000/svg"><path d="M8.151 15h1.173L2.503 8 9.305.96H8.15L1.727 7.64V.96H.832V15h.895V8.38L8.151 15ZM10.84 9.56c0 3.42 2.189 5.6 5.212 5.6 2.366 0 3.977-1.36 4.574-3.02V15h.895V4.14h-.895v2.84C20.029 5.34 18.438 4 16.052 4c-3.023 0-5.211 2.12-5.211 5.56Zm9.786 0c0 2.94-1.93 4.8-4.455 4.8-2.605 0-4.415-1.8-4.415-4.8s1.81-4.78 4.415-4.78c2.526 0 4.455 1.88 4.455 4.78ZM25.197 15h.895V4.94h2.805v-.8h-2.805v-.76c0-1.76.657-2.56 2.765-2.56v-.8c-2.665 0-3.66 1.14-3.66 3.36v.76h-1.63v.8h1.63V15ZM31.19 15h.894v-4.98L36.798 15h1.233l-5.29-5.46 5.23-5.4h-1.253l-4.634 4.92V.2h-.895V15ZM39.314 9.56c0 3.42 2.188 5.6 5.21 5.6 2.368 0 3.978-1.36 4.575-3.02V15h.895V4.14H49.1v2.84C48.503 5.34 46.911 4 44.525 4c-3.023 0-5.211 2.12-5.211 5.56Zm9.785 0c0 2.94-1.929 4.8-4.455 4.8-2.605 0-4.415-1.8-4.415-4.8s1.81-4.78 4.415-4.78c2.526 0 4.455 1.88 4.455 4.78Z" fill="#000"/></svg>