<svg width="1043" height="843" fill="none" xmlns="http://www.w3.org/2000/svg"><g opacity=".9"><path opacity=".9" d="M512.613 89.575c-43.799-25.288-71.778-56.257-84.09-88.778v66.4c12.312 32.521 40.287 63.488 84.09 88.775 119.64 69.073 312.572 70.372 433.609 3.726V93.301c-121.037 66.646-313.967 65.347-433.609-3.726Z" fill="url('#paint0_linear_1271_2028')"/><path opacity=".2" d="M1041.54 37.958c.81 43.831-25.92 87.717-80.376 122.105v16.599c54.716-34.557 81.456-78.704 80.376-122.752l.47-.64V37.777l-.47.181Z" fill="url('#paint1_linear_1271_2028')"/><path opacity=".2" d="M512.613 165.104c-43.799-25.288-71.778-56.254-84.09-88.776v16.6c12.312 32.521 40.287 63.488 84.09 88.775 119.64 69.076 312.572 70.373 433.609 3.726V168.83c-121.037 66.646-313.967 65.349-433.609-3.726Z" fill="url('#paint2_linear_1271_2028')"/><g filter="url('#filter0_d_1271_2028')"><path d="M540 197.5V310L150 460.5H4.5" stroke="#518CFC" stroke-width="2"/></g><g filter="url('#filter1_d_1271_2028')"><path d="M1006 136v161l21 68.5L834 669v165h-87.5" stroke="#518CFC" stroke-width="2"/></g></g><defs><linearGradient id="paint0_linear_1271_2028" x1="944.067" y1="104.772" x2="388.324" y2="104.772" gradientUnits="userSpaceOnUse"><stop offset=".035" stop-color="#4686FF"/><stop offset=".162" stop-color="#3A79F0"/><stop offset=".406" stop-color="#1D55C7"/><stop offset=".49" stop-color="#1148B8"/><stop offset=".995" stop-color="#2D65CD"/></linearGradient><linearGradient id="paint1_linear_1271_2028" x1="958.141" y1="-434.659" x2="1101.97" y2="-424.512" gradientUnits="userSpaceOnUse"><stop stop-color="#337AFF"/><stop offset="1" stop-color="#4D8BFF"/></linearGradient><linearGradient id="paint2_linear_1271_2028" x1="409.171" y1="-461.651" x2="1208.86" y2="-144.373" gradientUnits="userSpaceOnUse"><stop stop-color="#337AFF"/><stop offset="1" stop-color="#4D8BFF"/></linearGradient><filter id="filter0_d_1271_2028" x=".5" y="197.5" width="544.5" height="272" filterUnits="userSpaceOnUse" color-interpolation-filters="sRGB"><feFlood flood-opacity="0" result="BackgroundImageFix"/><feColorMatrix in="SourceAlpha" values="0 0 0 0 0 0 0 0 0 0 0 0 0 0 0 0 0 0 127 0" result="hardAlpha"/><feOffset dy="4"/><feGaussianBlur stdDeviation="2"/><feComposite in2="hardAlpha" operator="out"/><feColorMatrix values="0 0 0 0 0 0 0 0 0 0 0 0 0 0 0 0 0 0 0.25 0"/><feBlend in2="BackgroundImageFix" result="effect1_dropShadow_1271_2028"/><feBlend in="SourceGraphic" in2="effect1_dropShadow_1271_2028" result="shape"/></filter><filter id="filter1_d_1271_2028" x="742.5" y="136" width="289.594" height="707" filterUnits="userSpaceOnUse" color-interpolation-filters="sRGB"><feFlood flood-opacity="0" result="BackgroundImageFix"/><feColorMatrix in="SourceAlpha" values="0 0 0 0 0 0 0 0 0 0 0 0 0 0 0 0 0 0 127 0" result="hardAlpha"/><feOffset dy="4"/><feGaussianBlur stdDeviation="2"/><feComposite in2="hardAlpha" operator="out"/><feColorMatrix values="0 0 0 0 0 0 0 0 0 0 0 0 0 0 0 0 0 0 0.25 0"/><feBlend in2="BackgroundImageFix" result="effect1_dropShadow_1271_2028"/><feBlend in="SourceGraphic" in2="effect1_dropShadow_1271_2028" result="shape"/></filter></defs></svg>