<svg width="87" height="79" fill="none" xmlns="http://www.w3.org/2000/svg"><rect x=".805" y=".805" width="85.813" height="77.254" rx="24" fill="url('#paint0_linear_1271_1779')"/><path d="M67.53 57.658c-2.816-.06-5.565-.06-8.38 0-.604 0-.738-.12-.738-.664v-13.46c0-1.025-.067-2.051-.402-3.017-1.006-3.139-5.029-4.285-7.911-2.173-1.542 1.087-2.146 2.595-2.146 4.406v12.675c0 .543-.067 1.086 0 1.69.067.482-.2.603-.67.543h-8.581c-.537 0-.67-.12-.67-.604.066-3.802.066-7.605.066-11.467 0-4.708 0-9.416-.067-14.063 0-.543.134-.664.67-.664h8.582c.536 0 .67.12.67.604v3.078l.336-.302c2.614-3.44 6.301-4.406 10.66-3.802 5.027.724 8.245 3.862 9.05 8.69.2 1.148.268 2.294.268 3.441v14.425c0 .483-.134.664-.737.664ZM32.668 44.262v12.675c0 .543-.135.724-.738.724-2.816-.06-5.631 0-8.447 0-.536 0-.67-.12-.67-.604v-25.59c0-.423.134-.604.67-.604h8.648c.604 0 .67.181.67.664-.133 4.225-.133 8.45-.133 12.735ZM33.14 23.86c-.67 2.415-3.42 3.803-6.57 3.32-3.353-.483-5.23-3.44-4.023-6.337.804-1.81 2.749-2.897 5.23-2.837 3.753-.06 6.234 2.656 5.362 5.855Z" fill="#fff"/><defs><linearGradient id="paint0_linear_1271_1779" x1="95.199" y1="39.432" x2="3.712" y2="44.196" gradientUnits="userSpaceOnUse"><stop stop-color="#9AF0FF"/><stop offset=".964" stop-color="#86ACE6"/></linearGradient></defs></svg>