<svg width="26" height="25" fill="none" xmlns="http://www.w3.org/2000/svg"><path d="M24.662 0H12.258c0 2.994 2.51 5.432 5.592 5.432h2.294v2.124c0 2.994 2.51 5.432 5.593 5.432V1.045C25.737.453 25.271 0 24.662 0Z" fill="#2684FF"/><path d="M18.537 5.988H6.133c0 2.995 2.51 5.432 5.592 5.432h2.295v2.159c0 2.994 2.51 5.432 5.592 5.432V7.033c0-.557-.466-1.045-1.075-1.045Z" fill="url('#paint0_linear_1271_2102')"/><path d="M12.404 12.012H0c0 2.994 2.51 5.431 5.592 5.431h2.295v2.124c0 2.995 2.51 5.432 5.592 5.432V13.056c0-.592-.502-1.044-1.075-1.044Z" fill="url('#paint1_linear_1271_2102')"/><defs><linearGradient id="paint0_linear_1271_2102" x1="19.348" y1="6.018" x2="14.233" y2="11.45" gradientUnits="userSpaceOnUse"><stop offset=".176" stop-color="#0052CC"/><stop offset="1" stop-color="#2684FF"/></linearGradient><linearGradient id="paint1_linear_1271_2102" x1="13.56" y1="12.052" x2="7.636" y2="17.987" gradientUnits="userSpaceOnUse"><stop offset=".176" stop-color="#0052CC"/><stop offset="1" stop-color="#2684FF"/></linearGradient></defs></svg>