<svg width="45" height="22" fill="none" xmlns="http://www.w3.org/2000/svg"><path d="M6.893 1.133h2.832V15.13c0 3.69-1.685 6.267-5.593 6.267-1.47 0-2.617-.243-3.405-.522v-2.68c.86.347 1.9.521 2.94.521 2.401 0 3.226-1.392 3.226-3.412V1.133ZM14.923.055c1.112 0 1.9.661 1.9 1.845 0 1.15-.788 1.845-1.9 1.845-1.111 0-1.9-.661-1.9-1.845 0-1.149.789-1.845 1.9-1.845Zm-1.398 5.884h2.725v15.32h-2.725V5.94ZM22.989 21.26h-2.653V5.94h2.653v2.68c.932-1.81 2.51-3.099 5.592-2.925v2.577c-3.477-.348-5.592.662-5.592 3.934v9.053ZM41.307 18.508c-1.004 2.02-2.904 3.064-5.341 3.064-4.195 0-6.31-3.447-6.31-7.973 0-4.318 2.223-7.974 6.632-7.974 2.295 0 4.087 1.01 5.02 2.994V5.94h2.724v15.32h-2.725v-2.751Zm-4.624.627c2.437 0 4.588-1.498 4.588-4.91v-1.218c0-3.413-1.971-4.91-4.302-4.91-3.047 0-4.624 1.95-4.624 5.502.036 3.69 1.541 5.536 4.338 5.536Z" fill="#253858"/></svg>