<svg width="66" height="39" fill="none" xmlns="http://www.w3.org/2000/svg"><path fill-rule="evenodd" clip-rule="evenodd" d="M35.368 0c-.25 0-.482.052-.697.121.456.295.706.686.83 1.128.01.06.027.104.036.165a.932.932 0 0 1 .018.156c.036.763-.205.858-.375 1.31a1.808 1.808 0 0 0 .125 1.708c.027.06.063.13.107.19-.339-2.193 1.544-2.523 1.893-3.208.026-.599-.482-.998-.884-1.275A2.016 2.016 0 0 0 35.368 0Zm2.838.494c-.036.2-.009.148-.018.252-.009.07-.009.156-.018.225a1.87 1.87 0 0 1-.062.209c-.018.069-.045.138-.071.208-.036.07-.063.13-.099.2-.026.034-.044.069-.071.103l-.054.078c-.044.061-.089.122-.134.174-.053.052-.098.113-.16.156v.009c-.054.043-.107.095-.17.138-.187.14-.401.243-.598.373-.062.044-.125.078-.178.13a1.292 1.292 0 0 0-.17.14c-.062.051-.107.103-.16.164-.045.052-.099.113-.135.173-.044.061-.089.122-.124.183-.036.069-.063.13-.099.199-.026.07-.053.13-.071.2-.027.078-.045.147-.063.216-.008.035-.008.078-.017.113-.01.035-.01.07-.018.104 0 .07-.01.148-.01.217 0 .052 0 .104.01.156 0 .07.009.139.026.217.01.07.027.139.045.208.027.07.045.139.072.208.017.044.044.087.062.122l-2.053-.772a22.594 22.594 0 0 0-1.035-.26l-.563-.13a17.026 17.026 0 0 0-1.624-.235c-.018 0-.027-.008-.045-.008a16.426 16.426 0 0 0-2.767-.035c-.545.035-1.09.104-1.634.19-.134.018-.267.044-.401.07-.277.052-.545.113-.804.174l-.401.104c-.134.052-.26.112-.384.164l-.295.13c-.018.01-.036.01-.044.018-.09.043-.17.078-.25.121a3.976 3.976 0 0 0-.34.165c-.062.026-.125.06-.178.087a.808.808 0 0 1-.08.043c-.08.044-.161.087-.233.13-.08.044-.151.087-.214.13-.062.044-.125.078-.178.122-.01.009-.018.009-.027.017a2.06 2.06 0 0 0-.17.122l-.018.017-.133.104c-.018.009-.036.026-.054.035-.045.034-.09.078-.134.112-.009.018-.027.026-.036.035-.053.052-.107.096-.16.148-.01 0-.01.008-.018.017-.054.043-.107.095-.16.147-.01.01-.01.018-.019.018-.044.043-.089.086-.134.138-.017.018-.044.035-.062.053a2.45 2.45 0 0 1-.152.156c-.009.017-.026.026-.035.043-.072.07-.134.139-.206.208a5.06 5.06 0 0 1-.982.833 6.767 6.767 0 0 1-.535.33 5.506 5.506 0 0 1-.563.26 6.557 6.557 0 0 1-.58.208c-.375.078-.759.225-1.089.251-.071 0-.152.018-.223.026l-.223.052-.214.078c-.072.026-.143.061-.215.096-.062.043-.134.078-.196.121a1.44 1.44 0 0 0-.178.148 1.508 1.508 0 0 0-.179.156c-.054.06-.107.112-.152.173-.044.07-.098.13-.134.2-.044.06-.089.13-.125.2-.035.077-.071.147-.098.225-.027.07-.053.147-.08.225-.018.07-.036.139-.045.208 0 .009-.009.018-.009.026-.018.078-.018.182-.027.235-.008.06-.017.112-.017.173 0 .035 0 .078.009.113a.89.89 0 0 0 .035.164c.018.053.036.105.063.157v.008c.027.052.062.104.098.156.036.053.071.104.116.157.045.043.098.095.152.138.053.052.107.096.17.14.214.181.267.242.544.38.044.027.09.044.143.07.009 0 .017.009.026.009 0 .017 0 .026.01.043.008.07.026.139.044.208.018.078.045.148.071.209.027.052.045.104.072.156.009.017.018.034.027.043.035.07.071.13.107.19l.134.183c.044.052.098.113.151.165.054.052.108.095.17.147 0 0 .009.009.018.009.053.043.107.087.16.121.063.044.126.078.197.113.062.035.134.07.205.095.054.026.116.044.179.061.009.009.018.009.035.018l.116.026c-.026.468-.035.91.036 1.066.08.174.473-.355.866-.962-.053.598-.09 1.3 0 1.509.098.216.634-.46 1.098-1.206 6.329-1.422 12.104 2.828 12.711 8.83-.116-.937-1.303-1.458-1.848-1.328-.268.642-.723 1.466-1.455 1.978a5.409 5.409 0 0 0-.089-1.735 5.547 5.547 0 0 1-1.107 2.186c-.848.06-1.696-.338-2.142-.937-.036-.026-.045-.078-.072-.113a1.523 1.523 0 0 1-.07-.182.702.702 0 0 1-.054-.182c-.01-.06-.01-.121-.01-.19v-.13c.01-.061.027-.122.045-.183.018-.06.036-.121.063-.182.035-.06.062-.122.107-.182.152-.417.152-.755-.125-.954a1.023 1.023 0 0 0-.17-.087c-.035-.009-.08-.026-.116-.035-.027-.008-.044-.017-.071-.026-.063-.017-.125-.034-.188-.043a.696.696 0 0 0-.187-.026 1.497 1.497 0 0 0-.197-.017c-.044 0-.089.008-.133.008a.717.717 0 0 0-.197.026c-.062.009-.125.018-.187.035-.063.017-.125.035-.188.06-.062.027-.116.053-.178.079-.054.026-.107.06-.17.086-2.08 1.319-.839 4.407.58 5.3-.535.095-1.08.208-1.231.32a5.117 5.117 0 0 0-.018.018c.384.226.785.416 1.205.581.571.182 1.178.347 1.446.416v.01c.74.147 1.49.199 2.25.155 3.954-.269 7.194-3.191 7.783-7.042l.054.225c.026.156.062.321.08.486v.009c.018.078.027.156.036.225v.035c.009.078.017.156.017.225.01.096.018.191.018.287V23c0 .044.01.096.01.139 0 .052-.01.104-.01.156v.122c0 .06-.009.112-.009.173 0 .035 0 .07-.009.113 0 .06-.008.121-.008.19-.01.027-.01.053-.01.079l-.026.2c0 .025 0 .051-.01.077-.008.087-.026.165-.035.252V24.52c-.018.077-.036.164-.053.242v.026l-.054.234c0 .009-.009.026-.009.035a2.272 2.272 0 0 1-.062.234v.026c-.027.087-.054.165-.072.243-.009.009-.009.017-.009.017l-.08.26c-.036.087-.063.165-.098.252-.036.087-.063.173-.099.252-.035.086-.07.164-.107.251h-.009c-.035.078-.071.165-.116.243a.41.41 0 0 1-.026.06c-.01.01-.01.018-.018.027a8.27 8.27 0 0 1-2.508 2.914 3.174 3.174 0 0 0-.215.147c-.018.017-.044.026-.062.043a3.762 3.762 0 0 1-.197.13l.027.053h.01l.374-.052h.009c.232-.035.464-.078.696-.122.063-.009.134-.026.197-.043.044-.009.08-.018.125-.026.062-.009.125-.026.187-.035.054-.017.107-.026.16-.043a17.264 17.264 0 0 0 2.59-.833 14.218 14.218 0 0 1-5.544 4.397 15.073 15.073 0 0 0 3.044-.511c3.597-1.032 6.623-3.383 8.435-6.549a13.636 13.636 0 0 1-2.4 5.577 13.973 13.973 0 0 0 2.383-1.925c1.999-2.03 3.311-4.606 3.757-7.372.304 1.37.393 2.784.26 4.18 6.444-8.734.535-17.788-1.938-20.174-.009-.017-.017-.026-.017-.043-.01.009-.01.009-.01.017 0-.008 0-.008-.008-.017 0 .104-.01.208-.018.312-.027.2-.054.39-.09.581-.044.191-.098.382-.151.573a7.11 7.11 0 0 1-.215.555c-.08.173-.17.355-.267.529a6.67 6.67 0 0 1-.687.963 6.564 6.564 0 0 1-.42.433c-.09.078-.17.148-.259.217l-.205.174c-.161.121-.322.234-.5.338-.17.104-.348.208-.527.295-.187.086-.375.165-.562.243-.188.069-.384.13-.58.182a7.348 7.348 0 0 1-.599.13c-.205.034-.41.052-.606.07-.143.008-.286.017-.429.017-.205 0-.41-.018-.607-.035a4.645 4.645 0 0 1-.607-.087 4.626 4.626 0 0 1-.598-.147h-.009c.196-.018.393-.035.59-.07a6.647 6.647 0 0 0 1.178-.312c.196-.07.383-.156.562-.243a6.28 6.28 0 0 0 .535-.286c.17-.113.34-.226.5-.347.161-.121.313-.252.456-.39.151-.13.285-.278.42-.425.133-.156.258-.312.374-.469.018-.026.036-.06.053-.086.09-.14.18-.278.26-.417a5.923 5.923 0 0 0 .481-1.084c.063-.182.108-.373.152-.564.036-.199.072-.39.09-.58.017-.2.035-.4.035-.59 0-.14-.009-.278-.018-.417-.017-.2-.044-.39-.071-.58-.036-.2-.08-.391-.134-.582-.063-.182-.125-.373-.196-.555a5.896 5.896 0 0 0-.25-.538c-.099-.173-.197-.347-.304-.511a9.609 9.609 0 0 0-.357-.477c-.134-.148-.268-.295-.41-.443-.072-.07-.152-.147-.233-.217-.401-.303-.82-.59-1.24-.85a1.691 1.691 0 0 0-.179-.086 3.531 3.531 0 0 0-.848-.365Z" fill="#E0234E"/></svg>