<svg width="26" height="31" fill="none" xmlns="http://www.w3.org/2000/svg"><path d="M12.975 15.318c4.261 0 7.716-3.43 7.716-7.66C20.691 3.43 17.236 0 12.975 0 8.713 0 5.258 3.429 5.258 7.659s3.455 7.659 7.717 7.659Z" fill="url('#paint0_linear_1271_1834')"/><path d="M12.328 30.593C7.3 27.366 3.094 23.02.103 17.857c-.217-.43-.087-.947.347-1.162h.043l5.853-2.84c.39-.215.91-.043 1.127.345a28.659 28.659 0 0 0 12.572 11.273 38.108 38.108 0 0 1-6.373 5.12c-.433.215-.953.215-1.344 0Z" fill="url('#paint1_linear_1271_1834')"/><path d="M13.627 30.593c5.072-3.184 9.234-7.573 12.268-12.693.217-.43.087-.947-.346-1.162h-.044l-5.852-2.84c-.39-.215-.91-.043-1.128.345A28.657 28.657 0 0 1 5.953 25.516c1.908 1.936 4.075 3.657 6.373 5.12.39.172.91.172 1.3-.043Z" fill="#2684FF"/><defs><linearGradient id="paint0_linear_1271_1834" x1="12.984" y1="2.552" x2="12.984" y2="18.312" gradientUnits="userSpaceOnUse"><stop stop-color="#2684FF"/><stop offset=".82" stop-color="#0052CC"/></linearGradient><linearGradient id="paint1_linear_1271_1834" x1="8.224" y1="17.872" x2="13.478" y2="28.952" gradientUnits="userSpaceOnUse"><stop stop-color="#2684FF"/><stop offset=".62" stop-color="#0052CC"/></linearGradient></defs></svg>