<svg width="85" height="80" fill="none" xmlns="http://www.w3.org/2000/svg"><rect width="84.029" height="79.419" rx="24" fill="url('#paint0_linear_1271_2529')"/><path d="M48 27v9.71l3.59 2.136a.97.97 0 0 0 .394 0L67.435 29c0-1.165-1.15-2-1.799-2H48Z" fill="#fff"/><path d="m48.549 38.747 3.276 2.127c.462.32 1.018 0 1.018 0-.554.32 15.143-9.534 15.143-9.534v17.845c0 1.942-1.316 2.757-2.795 2.757H48.547V38.747h.002ZM31.587 34.27c-1.117 0-2.006.495-2.663 1.485-.657.99-.986 2.3-.986 3.932 0 1.656.329 2.964.986 3.926.657.964 1.519 1.443 2.584 1.443 1.098 0 1.97-.468 2.613-1.403.643-.936.967-2.236.967-3.897 0-1.732-.312-3.08-.937-4.044-.625-.962-1.48-1.443-2.564-1.443Z" fill="#fff"/><path d="M16.047 20.483v37.985l30.574 6.06V14.89l-30.574 5.592Zm20.459 25.414c-1.292 1.608-2.977 2.413-5.056 2.413-2.026 0-3.675-.78-4.95-2.336-1.275-1.559-1.914-3.587-1.914-6.089 0-2.642.647-4.778 1.943-6.41 1.296-1.63 3.012-2.447 5.148-2.447 2.018 0 3.651.78 4.896 2.341 1.246 1.563 1.87 3.62 1.87 6.177.002 2.627-.645 4.744-1.937 6.351Z" fill="#fff"/><defs><linearGradient id="paint0_linear_1271_2529" x1="92.432" y1="39.709" x2="2.824" y2="44.154" gradientUnits="userSpaceOnUse"><stop stop-color="#9AF0FF"/><stop offset=".964" stop-color="#86ACE6"/></linearGradient></defs></svg>