<svg width="85" height="80" fill="none" xmlns="http://www.w3.org/2000/svg"><rect y=".059" width="84.029" height="79.419" rx="24" fill="url('#paint0_linear_1271_1769')"/><path d="M48.547 25.473v9.709l3.59 2.136c.094.026.3.028.394 0l15.451-9.845c0-1.165-1.15-2-1.799-2H48.547Z" fill="#fff"/><path d="m48.549 38.805 3.276 2.127c.462.321 1.018 0 1.018 0-.554.321 15.143-9.534 15.143-9.534v17.845c0 1.943-1.316 2.758-2.795 2.758H48.547V38.805h.002ZM31.587 34.328c-1.117 0-2.006.496-2.663 1.486s-.986 2.3-.986 3.932c0 1.655.329 2.964.986 3.926.657.964 1.519 1.443 2.584 1.443 1.098 0 1.97-.468 2.613-1.404.643-.936.967-2.235.967-3.896 0-1.732-.312-3.08-.937-4.044-.625-.962-1.48-1.443-2.564-1.443Z" fill="#fff"/><path d="M16.047 20.542v37.985l30.574 6.059V14.949l-30.574 5.593Zm20.459 25.414c-1.292 1.607-2.977 2.412-5.056 2.412-2.026 0-3.675-.779-4.95-2.336-1.275-1.558-1.914-3.586-1.914-6.088 0-2.642.647-4.779 1.943-6.41 1.296-1.631 3.012-2.447 5.148-2.447 2.018 0 3.651.779 4.896 2.341 1.246 1.562 1.87 3.62 1.87 6.176.002 2.627-.645 4.745-1.937 6.352Z" fill="#fff"/><defs><linearGradient id="paint0_linear_1271_1769" x1="92.432" y1="39.768" x2="2.824" y2="44.212" gradientUnits="userSpaceOnUse"><stop stop-color="#9AF0FF"/><stop offset=".964" stop-color="#86ACE6"/></linearGradient></defs></svg>