<svg width="49" height="74" fill="none" xmlns="http://www.w3.org/2000/svg"><g filter="url('#filter0_d_1271_2048')"><path d="M10 44.845V20.997C10 7.765 14.875 0 29.42 0 44.045 0 49 7.765 49 20.997v23.848C49 58.076 44.045 66 29.42 66 14.875 66 10 58.077 10 44.845Zm24.375 3.565V17.512c0-3.802-.48-7.527-4.955-7.527-4.236 0-4.795 3.723-4.795 7.527V48.41c0 3.645.32 7.527 4.795 7.527s4.955-3.883 4.955-7.527Z" fill="#137EFF"/></g><defs><filter id="filter0_d_1271_2048" x="0" y="0" width="49" height="74" filterUnits="userSpaceOnUse" color-interpolation-filters="sRGB"><feFlood flood-opacity="0" result="BackgroundImageFix"/><feColorMatrix in="SourceAlpha" values="0 0 0 0 0 0 0 0 0 0 0 0 0 0 0 0 0 0 127 0" result="hardAlpha"/><feOffset dx="-6" dy="4"/><feGaussianBlur stdDeviation="2"/><feComposite in2="hardAlpha" operator="out"/><feColorMatrix values="0 0 0 0 0 0 0 0 0 0 0 0 0 0 0 0 0 0 0.25 0"/><feBlend in2="BackgroundImageFix" result="effect1_dropShadow_1271_2048"/><feBlend in="SourceGraphic" in2="effect1_dropShadow_1271_2048" result="shape"/></filter></defs></svg>