<svg width="42" height="70" fill="none" xmlns="http://www.w3.org/2000/svg"><g filter="url('#filter0_d_1271_2049')"><path d="M10 .797h12.66v3.347C25.3 1.6 28.75.127 32.37 0 39.204 0 42 6.057 42 13.548v19.845c0 8.608-3.417 14.265-9.787 14.265-3.262 0-6.601-1.674-9.553-4.306V62H10V.797Zm19.341 33.311V12.59c0-2.63-.931-4.781-3.106-4.781A5.288 5.288 0 0 0 22.662 9.4v28.69a6.104 6.104 0 0 0 3.34 1.195c2.408 0 3.34-2.311 3.34-5.18" fill="#137EFF"/></g><defs><filter id="filter0_d_1271_2049" x="0" y="0" width="42" height="70" filterUnits="userSpaceOnUse" color-interpolation-filters="sRGB"><feFlood flood-opacity="0" result="BackgroundImageFix"/><feColorMatrix in="SourceAlpha" values="0 0 0 0 0 0 0 0 0 0 0 0 0 0 0 0 0 0 127 0" result="hardAlpha"/><feOffset dx="-6" dy="4"/><feGaussianBlur stdDeviation="2"/><feComposite in2="hardAlpha" operator="out"/><feColorMatrix values="0 0 0 0 0 0 0 0 0 0 0 0 0 0 0 0 0 0 0.25 0"/><feBlend in2="BackgroundImageFix" result="effect1_dropShadow_1271_2049"/><feBlend in="SourceGraphic" in2="effect1_dropShadow_1271_2049" result="shape"/></filter></defs></svg>