<svg width="44" height="60" fill="none" xmlns="http://www.w3.org/2000/svg"><g filter="url('#filter0_d_1271_1951')"><path d="M10.188 35.377V17.33C10.188 6.772 16.657.9 27.299.9c10.9 0 16.346 5.7 16.346 16.43v9.875h-19.75v9.45c0 3.831 1.361 5.28 3.404 5.28 2.044 0 3.576-1.193 3.576-4.769v-5.193h12.77v4.768c0 9.96-6.129 15.07-16.346 15.07-10.726 0-17.111-5.96-17.111-16.433Zm20.688-14.642v-4.938c0-3.916-1.533-5.023-3.662-5.023-2.042 0-3.32 1.277-3.32 5.79v4.17l6.982.001Z" fill="#137EFF"/></g><defs><filter id="filter0_d_1271_1951" x=".188" y=".898" width="43.461" height="58.91" filterUnits="userSpaceOnUse" color-interpolation-filters="sRGB"><feFlood flood-opacity="0" result="BackgroundImageFix"/><feColorMatrix in="SourceAlpha" values="0 0 0 0 0 0 0 0 0 0 0 0 0 0 0 0 0 0 127 0" result="hardAlpha"/><feOffset dx="-6" dy="4"/><feGaussianBlur stdDeviation="2"/><feComposite in2="hardAlpha" operator="out"/><feColorMatrix values="0 0 0 0 0 0 0 0 0 0 0 0 0 0 0 0 0 0 0.25 0"/><feBlend in2="BackgroundImageFix" result="effect1_dropShadow_1271_1951"/><feBlend in="SourceGraphic" in2="effect1_dropShadow_1271_1951" result="shape"/></filter></defs></svg>