<svg width="40" height="56" fill="none" xmlns="http://www.w3.org/2000/svg"><g filter="url('#filter0_d_1271_2050')"><path d="m10 36.363 8.626-3.933c1.632 4.174 3.885 6.743 6.605 6.743 1.942 0 2.953-.884 2.953-2.408 0-2.489-1.552-3.854-6.217-7.868l-3.264-2.808c-4.74-4.175-7.694-7.544-7.694-13.325C11.01 5.22 17.46 0 24.843 0s12.434 4.337 14.454 11.96l-8.16 3.853c-.931-2.97-3.186-6.662-5.984-6.662a2.378 2.378 0 0 0-1.048.115 2.438 2.438 0 0 0-.905.56c-.258.252-.46.559-.593.9a2.608 2.608 0 0 0-.173 1.074c0 2.007 2.332 4.254 6.299 7.543l3.186 2.89C35.804 25.603 40 29.457 40 35.398 40 43.505 33.394 48 26.245 48c-7.85 0-12.977-3.372-16.241-11.639" fill="#137EFF"/></g><defs><filter id="filter0_d_1271_2050" x="0" y="0" width="40" height="56" filterUnits="userSpaceOnUse" color-interpolation-filters="sRGB"><feFlood flood-opacity="0" result="BackgroundImageFix"/><feColorMatrix in="SourceAlpha" values="0 0 0 0 0 0 0 0 0 0 0 0 0 0 0 0 0 0 127 0" result="hardAlpha"/><feOffset dx="-6" dy="4"/><feGaussianBlur stdDeviation="2"/><feComposite in2="hardAlpha" operator="out"/><feColorMatrix values="0 0 0 0 0 0 0 0 0 0 0 0 0 0 0 0 0 0 0.25 0"/><feBlend in2="BackgroundImageFix" result="effect1_dropShadow_1271_2050"/><feBlend in="SourceGraphic" in2="effect1_dropShadow_1271_2050" result="shape"/></filter></defs></svg>