<svg width="1945" height="518" fill="none" xmlns="http://www.w3.org/2000/svg"><g filter="url('#filter0_d_1271_1684')"><mask id="path-1-inside-1_1271_1684" fill="#fff"><path fill-rule="evenodd" clip-rule="evenodd" d="M1902 10h13v478H10V10h1892Z"/></mask><path fill-rule="evenodd" clip-rule="evenodd" d="M1902 10h13v478H10V10h1892Z" fill="#fff" fill-opacity=".92"/><path d="M1915 10h1V9h-1v1Zm0 478v1h1v-1h-1ZM10 488H9v1h1v-1Zm0-478V9H9v1h1Zm1892 1h13V9h-13v2Zm12-1v13h2V10h-2Zm0 13v452h2V23h-2Zm0 452v13h2v-13h-2Zm1 12h-13v2h13v-2Zm-13 0H23v2h1879v-2ZM23 487H10v2h13v-2Zm-12 1v-13H9v13h2Zm0-13V23H9v452h2Zm0-452V10H9v13h2Zm-1-12h13V9H10v2Zm13 0h1879V9H23v2Z" fill="#DDD" mask="url('#path-1-inside-1_1271_1684')"/></g><defs><filter id="filter0_d_1271_1684" x="0" y="0" width="1945" height="518" filterUnits="userSpaceOnUse" color-interpolation-filters="sRGB"><feFlood flood-opacity="0" result="BackgroundImageFix"/><feColorMatrix in="SourceAlpha" values="0 0 0 0 0 0 0 0 0 0 0 0 0 0 0 0 0 0 127 0" result="hardAlpha"/><feOffset dx="10" dy="10"/><feGaussianBlur stdDeviation="10"/><feColorMatrix values="0 0 0 0 0 0 0 0 0 0 0 0 0 0 0 0 0 0 0.07 0"/><feBlend in2="BackgroundImageFix" result="effect1_dropShadow_1271_1684"/><feBlend in="SourceGraphic" in2="effect1_dropShadow_1271_1684" result="shape"/></filter></defs></svg>