<svg width="1945" height="502" fill="none" xmlns="http://www.w3.org/2000/svg"><g filter="url('#filter0_d_1271_1684')"><mask id="path-1-inside-1_1271_1684" fill="#fff"><path fill-rule="evenodd" clip-rule="evenodd" d="M1902 10h13v449c0 7.18-5.82 13-13 13H23c-7.18 0-13-5.82-13-13V10h1892Z"/></mask><path fill-rule="evenodd" clip-rule="evenodd" d="M1902 10h13v449c0 7.18-5.82 13-13 13H23c-7.18 0-13-5.82-13-13V10h1892Z" fill="#fff" fill-opacity=".92"/><path d="M1915 10h1V9h-1v1ZM10 10V9H9v1h1Zm1892 1h13V9h-13v2Zm12-1v13h2V10h-2Zm0 13v215.12h2V23h-2Zm0 215.12V459h2V238.12h-2Zm0 220.88c0 6.627-5.37 12-12 12v2c7.73 0 14-6.268 14-14h-2Zm-12 12H23v2h1879v-2ZM23 471c-6.627 0-12-5.373-12-12H9c0 7.732 6.268 14 14 14v-2Zm-12-12V238.12H9V459h2Zm0-220.88V23H9v215.12h2ZM11 23V10H9v13h2Zm-1-12h13V9H10v2Zm13 0h1879V9H23v2Z" fill="#DDD" mask="url('#path-1-inside-1_1271_1684')"/></g><defs><filter id="filter0_d_1271_1684" x="0" y="0" width="1945" height="502" filterUnits="userSpaceOnUse" color-interpolation-filters="sRGB"><feFlood flood-opacity="0" result="BackgroundImageFix"/><feColorMatrix in="SourceAlpha" values="0 0 0 0 0 0 0 0 0 0 0 0 0 0 0 0 0 0 127 0" result="hardAlpha"/><feOffset dx="10" dy="10"/><feGaussianBlur stdDeviation="10"/><feColorMatrix values="0 0 0 0 0 0 0 0 0 0 0 0 0 0 0 0 0 0 0.07 0"/><feBlend in2="BackgroundImageFix" result="effect1_dropShadow_1271_1684"/><feBlend in="SourceGraphic" in2="effect1_dropShadow_1271_1684" result="shape"/></filter></defs></svg>