<svg width="1945" height="2617" fill="none" xmlns="http://www.w3.org/2000/svg"><g filter="url('#filter0_d_1271_1611')"><mask id="path-1-inside-1_1271_1611" fill="#fff"><path fill-rule="evenodd" clip-rule="evenodd" d="M1902 10h13v2577H10V10h1892Z"/></mask><path fill-rule="evenodd" clip-rule="evenodd" d="M1902 10h13v2577H10V10h1892Z" fill="#fff" fill-opacity=".92"/><path d="M1915 10h1V9h-1v1Zm0 2577v1h1v-1h-1Zm-1905 0H9v1h1v-1ZM10 10V9H9v1h1Zm1892 1h13V9h-13v2Zm12-1v13h2V10h-2Zm0 13v1423.31h2V23h-2Zm0 1423.31V2587h2V1446.31h-2Zm1 1139.69H10v2h1905v-2Zm-1904 1V1446.31H9V2587h2Zm0-1140.69V23H9v1423.31h2ZM11 23V10H9v13h2Zm-1-12h13V9H10v2Zm13 0h1879V9H23v2Z" fill="#DDD" mask="url('#path-1-inside-1_1271_1611')"/></g><defs><filter id="filter0_d_1271_1611" x="0" y="0" width="1945" height="2617" filterUnits="userSpaceOnUse" color-interpolation-filters="sRGB"><feFlood flood-opacity="0" result="BackgroundImageFix"/><feColorMatrix in="SourceAlpha" values="0 0 0 0 0 0 0 0 0 0 0 0 0 0 0 0 0 0 127 0" result="hardAlpha"/><feOffset dx="10" dy="10"/><feGaussianBlur stdDeviation="10"/><feColorMatrix values="0 0 0 0 0 0 0 0 0 0 0 0 0 0 0 0 0 0 0.07 0"/><feBlend in2="BackgroundImageFix" result="effect1_dropShadow_1271_1611"/><feBlend in="SourceGraphic" in2="effect1_dropShadow_1271_1611" result="shape"/></filter></defs></svg>