<svg width="1945" height="225" fill="none" xmlns="http://www.w3.org/2000/svg"><g filter="url('#filter0_d_1271_1763')"><mask id="path-1-inside-1_1271_1763" fill="#fff"><path fill-rule="evenodd" clip-rule="evenodd" d="M23 10c-7.18 0-13 5.82-13 13v158.951c0 7.18 5.82 13 13 13h1879c7.18 0 13-5.82 13-13V23c0-7.18-5.82-13-13-13H23Z"/></mask><path fill-rule="evenodd" clip-rule="evenodd" d="M23 10c-7.18 0-13 5.82-13 13v158.951c0 7.18 5.82 13 13 13h1879c7.18 0 13-5.82 13-13V23c0-7.18-5.82-13-13-13H23Z" fill="#fff" fill-opacity=".92"/><path d="M11 23c0-6.627 5.373-12 12-12V9C15.268 9 9 15.268 9 23h2Zm0 158.951V23H9v158.951h2Zm12 12c-6.627 0-12-5.373-12-12H9c0 7.732 6.268 14 14 14v-2Zm1879 0H23v2h1879v-2Zm12-12c0 6.627-5.37 12-12 12v2c7.73 0 14-6.268 14-14h-2ZM1914 23v158.951h2V23h-2Zm-12-12c6.63 0 12 5.373 12 12h2c0-7.732-6.27-14-14-14v2ZM23 11h1879V9H23v2Z" fill="#F4F4F4" mask="url('#path-1-inside-1_1271_1763')"/></g><defs><filter id="filter0_d_1271_1763" x="0" y="0" width="1945" height="224.949" filterUnits="userSpaceOnUse" color-interpolation-filters="sRGB"><feFlood flood-opacity="0" result="BackgroundImageFix"/><feColorMatrix in="SourceAlpha" values="0 0 0 0 0 0 0 0 0 0 0 0 0 0 0 0 0 0 127 0" result="hardAlpha"/><feOffset dx="10" dy="10"/><feGaussianBlur stdDeviation="10"/><feColorMatrix values="0 0 0 0 0 0 0 0 0 0 0 0 0 0 0 0 0 0 0.07 0"/><feBlend in2="BackgroundImageFix" result="effect1_dropShadow_1271_1763"/><feBlend in="SourceGraphic" in2="effect1_dropShadow_1271_1763" result="shape"/></filter></defs></svg>