<svg width="872" height="186" fill="none" xmlns="http://www.w3.org/2000/svg"><g filter="url('#filter0_d_1271_1740')"><mask id="path-1-inside-1_1271_1740" fill="#fff"><path fill-rule="evenodd" clip-rule="evenodd" d="M.844 170.329V0h855.893c7.179 0 13 5.82 13 13v157.329c0 7.18-5.821 13-13 13H.844v-13Z"/></mask><path fill-rule="evenodd" clip-rule="evenodd" d="M.844 170.329V0h855.893c7.179 0 13 5.82 13 13v157.329c0 7.18-5.821 13-13 13H.844v-13Z" fill="#fff" fill-opacity=".92"/><path d="M.844 0v-1h-1v1h1Zm0 183.329h-1v1h1v-1Zm1-13V13h-2v157.329h2ZM1.844 13V0h-2v13h2Zm-1-12h13v-2h-13v2Zm13 0h732.47v-2H13.844v2Zm842.893-2H746.314v2h110.423v-2Zm14 14c0-7.732-6.268-14-14-14v2c6.627 0 12 5.373 12 12h2Zm0 157.329V13h-2v157.329h2Zm-14 14c7.732 0 14-6.268 14-14h-2c0 6.628-5.373 12-12 12v2Zm-110.423 0h110.423v-2H746.314v2Zm0-2H13.844v2h732.47v-2Zm-732.47 0h-13v2h13v-2Zm-12 1v-13h-2v13h2Z" fill="#DDD" mask="url('#path-1-inside-1_1271_1740')"/></g><defs><filter id="filter0_d_1271_1740" x=".844" y="0" width="870.891" height="185.328" filterUnits="userSpaceOnUse" color-interpolation-filters="sRGB"><feFlood flood-opacity="0" result="BackgroundImageFix"/><feColorMatrix in="SourceAlpha" values="0 0 0 0 0 0 0 0 0 0 0 0 0 0 0 0 0 0 127 0" result="hardAlpha"/><feOffset dx="2" dy="2"/><feColorMatrix values="0 0 0 0 0 0 0 0 0 0 0 0 0 0 0 0 0 0 0.07 0"/><feBlend in2="BackgroundImageFix" result="effect1_dropShadow_1271_1740"/><feBlend in="SourceGraphic" in2="effect1_dropShadow_1271_1740" result="shape"/></filter></defs></svg>