<svg width="16" height="25" fill="none" xmlns="http://www.w3.org/2000/svg"><path fill-rule="evenodd" clip-rule="evenodd" d="M8.002.71C3.582.71 0 4.34 0 8.817c0 1.155.244 2.255.673 3.25l7.465 12.536 7.192-12.536c.442-1.02.67-2.129.67-3.25C16 4.339 12.42.71 8.002.71Zm0 13.854a4.809 4.809 0 0 1-1.924-.407 5.017 5.017 0 0 1-1.63-1.15 5.319 5.319 0 0 1-1.086-1.72 5.535 5.535 0 0 1-.378-2.028 5.537 5.537 0 0 1 .38-2.026 5.321 5.321 0 0 1 1.086-1.72 5.02 5.02 0 0 1 1.629-1.15 4.81 4.81 0 0 1 1.923-.407 4.907 4.907 0 0 1 3.551 1.558 5.442 5.442 0 0 1 1.467 3.745 5.443 5.443 0 0 1-1.466 3.746 4.907 4.907 0 0 1-3.552 1.559Zm3.215-5.373c0 .445-.082.887-.243 1.299a3.41 3.41 0 0 1-.697 1.102 3.216 3.216 0 0 1-1.044.737c-.39.171-.81.26-1.233.26a3.144 3.144 0 0 1-2.276-.998 3.488 3.488 0 0 1-.94-2.4c0-.446.083-.887.244-1.298.161-.412.398-.786.696-1.101a3.215 3.215 0 0 1 1.044-.737A3.08 3.08 0 0 1 8 5.795c1.776 0 3.217 1.522 3.217 3.396Z" fill="#3697E1"/></svg>