<svg width="323" height="309" fill="none" xmlns="http://www.w3.org/2000/svg"><path d="m322.453 263.964-87.758-50.667c-12.487-4.078-24.249-9.185-34.895-15.332-62.521-36.094-63.37-94.336-1.903-129.821 2.934-1.697 5.989-3.284 9.098-4.814l-100.04-.18c-2.101-.003-4.007-.497-5.388-1.297-1.381-.797-2.237-1.9-2.244-3.111L99.007.816c-3.064 1.63-6.118 3.27-9.09 4.987-120.641 69.651-119.482 183.649 2.577 254.122 43.561 25.151 96.721 41.391 152.566 48.725l77.393-44.686Z" fill="url('#paint0_linear_1271_2004')"/><defs><linearGradient id="paint0_linear_1271_2004" x1=".187" y1="154.731" x2="322.453" y2="154.731" gradientUnits="userSpaceOnUse"><stop offset=".035" stop-color="#5E93FF"/><stop offset=".171" stop-color="#6D9DFF"/><stop offset=".433" stop-color="#96B8FF"/><stop offset=".793" stop-color="#D7E4FF"/><stop offset="1" stop-color="#fff"/></linearGradient></defs></svg>