<svg width="16" height="23" fill="none" xmlns="http://www.w3.org/2000/svg"><path fill-rule="evenodd" clip-rule="evenodd" d="M8.002 0C3.582 0 0 3.493 0 7.802c0 1.113.244 2.171.673 3.13L8.138 23l7.192-12.069c.442-.982.67-2.049.67-3.129C16 3.493 12.42 0 8.002 0Zm0 13.336a4.965 4.965 0 0 1-1.924-.39 5.022 5.022 0 0 1-1.63-1.11 5.1 5.1 0 0 1-1.086-1.655 5.155 5.155 0 0 1-.378-1.952 5.156 5.156 0 0 1 .38-1.95A5.101 5.101 0 0 1 4.45 4.623a5.023 5.023 0 0 1 1.629-1.107 4.969 4.969 0 0 1 1.923-.392 4.996 4.996 0 0 1 3.551 1.5 5.134 5.134 0 0 1 1.467 3.605 5.134 5.134 0 0 1-1.466 3.607 4.996 4.996 0 0 1-3.552 1.5Zm3.215-5.173a3.304 3.304 0 0 1-.94 2.312 3.184 3.184 0 0 1-2.277.96 3.202 3.202 0 0 1-2.276-.96 3.29 3.29 0 0 1-.94-2.312 3.303 3.303 0 0 1 .94-2.31A3.183 3.183 0 0 1 8 4.894c1.776.001 3.217 1.467 3.217 3.27Z" fill="#3697E1"/></svg>