<svg width="16" height="25" fill="none" xmlns="http://www.w3.org/2000/svg"><path fill-rule="evenodd" clip-rule="evenodd" d="M8.002.96A8 8 0 0 0 0 8.96c0 1.14.244 2.226.673 3.207l7.465 12.372 7.192-12.372A7.997 7.997 0 0 0 8.002.961Zm0 13.672a4.863 4.863 0 0 1-1.924-.401 5.02 5.02 0 0 1-1.63-1.136 5.24 5.24 0 0 1-1.086-1.698 5.4 5.4 0 0 1-.378-2 5.401 5.401 0 0 1 .38-2c.25-.634.62-1.21 1.086-1.697a5.02 5.02 0 0 1 1.629-1.135c.609-.264 1.262-.4 1.923-.402a4.937 4.937 0 0 1 3.551 1.538 5.332 5.332 0 0 1 1.467 3.696 5.333 5.333 0 0 1-1.466 3.697 4.937 4.937 0 0 1-3.552 1.538Zm3.215-5.303c0 .44-.082.875-.243 1.282a3.36 3.36 0 0 1-.697 1.088 3.216 3.216 0 0 1-1.044.728c-.39.168-.81.256-1.233.257a3.164 3.164 0 0 1-2.276-.986 3.417 3.417 0 0 1-.94-2.369c0-.44.083-.875.244-1.28.161-.407.398-.776.696-1.087a3.215 3.215 0 0 1 1.044-.727c.39-.169.81-.256 1.232-.257 1.776 0 3.217 1.502 3.217 3.351Z" fill="#3697E1"/></svg>