<svg width="323" height="309" fill="none" xmlns="http://www.w3.org/2000/svg"><path d="M199.806 197.363c-62.518-36.098-63.369-94.336-1.9-129.826 2.934-1.695 5.987-3.282 9.095-4.812l-100.038-.183c-2.101-.004-4.007-.498-5.388-1.294-1.381-.798-2.238-1.9-2.245-3.11L99.016.21c-3.064 1.63-6.118 3.27-9.09 4.986C-30.716 74.85-29.558 188.846 92.502 259.32c43.56 25.148 96.722 41.393 152.565 48.725l77.393-44.682-87.758-50.669c-12.49-4.075-24.252-9.182-34.896-15.33Z" fill="url('#paint0_linear_1271_1998')"/><defs><linearGradient id="paint0_linear_1271_1998" x1=".192" y1="154.129" x2="322.458" y2="154.129" gradientUnits="userSpaceOnUse"><stop stop-color="#1B2F55"/><stop offset="1" stop-color="#4686FF"/></linearGradient></defs></svg>