<svg width="323" height="309" fill="none" xmlns="http://www.w3.org/2000/svg"><path d="m322.453 263.358-87.758-50.667c-12.487-4.078-24.249-9.183-34.895-15.332-62.521-36.094-63.37-94.334-1.903-129.822 2.934-1.695 5.989-3.282 9.098-4.812l-100.04-.18c-2.101-.003-4.007-.499-5.388-1.297-1.381-.798-2.237-1.9-2.244-3.113L99.007.211c-3.064 1.63-6.118 3.27-9.09 4.986C-30.724 74.85-29.565 188.846 92.494 259.32c43.561 25.151 96.721 41.393 152.566 48.725l77.393-44.686Z" fill="url('#paint0_linear_1271_1990')"/><defs><linearGradient id="paint0_linear_1271_1990" x1=".187" y1="154.124" x2="322.453" y2="154.124" gradientUnits="userSpaceOnUse"><stop stop-color="#1B2F55"/><stop offset="1" stop-color="#4686FF"/></linearGradient></defs></svg>