<svg width="26" height="20" fill="none" xmlns="http://www.w3.org/2000/svg"><path fill-rule="evenodd" clip-rule="evenodd" d="m9.1 4.281-1.81.312-1.603.728-1.397.884-1.344 1.612-.724.78-.724.26-.207-.468.362-.468.052-.676h.259l.206.208-.051-.676-.259-.208v-.26l-.62.364-.621.676-.103.624.258.52.207.832.465.208h.518l.465-.312-.31 1.612.31 1.768-.362.832L.98 14.63l.155.78.569.832.982.676.57.104h.568l-.362 1.56 1.345.572 1.706.208.569-.416.052-.988.672-1.092.051-.884 1.552.156 1.448-.156-1.448.884.258 1.04.88 1.456.93.364.672-.26.31-.624 1.5-1.144.31.26 2.327.104.466-.416.052-.676-.156-.26-.103-1.82-.776-1.56.104-.728.465.26 1.345 1.248.62.052.724-.312.724-.52.362-1.196 2.068.156 1.293-.52 1.034-.936.724-1.404.207-1.664-.155-1.872-.414-1.716-.413-.572-.57-.156-.982 1.092-.879.312-.775-1.3-.776-.728-.465-.26-1.655-1.456L17.27.381 15.925.277l-1.603.26-1.396.52-.93.78-.776.936-.776.208-1.345 1.3Z" fill="#FCD116"/></svg>