<svg width="16" height="24" fill="none" xmlns="http://www.w3.org/2000/svg"><path fill-rule="evenodd" clip-rule="evenodd" d="M8.002.094C3.582.094 0 3.722 0 8.198c0 1.156.244 2.256.673 3.25l7.465 12.537 7.192-12.537c.442-1.02.67-2.128.67-3.25C16 3.722 12.42.094 8.002.094Zm0 13.853a4.807 4.807 0 0 1-1.924-.407 5.018 5.018 0 0 1-1.63-1.15 5.32 5.32 0 0 1-1.086-1.721 5.536 5.536 0 0 1-.378-2.027 5.537 5.537 0 0 1 .38-2.026 5.321 5.321 0 0 1 1.086-1.72 5.02 5.02 0 0 1 1.629-1.15 4.81 4.81 0 0 1 1.923-.407 4.907 4.907 0 0 1 3.551 1.558 5.442 5.442 0 0 1 1.467 3.745 5.443 5.443 0 0 1-1.466 3.746 4.907 4.907 0 0 1-3.552 1.559Zm3.215-5.374c0 .446-.082.887-.243 1.3a3.41 3.41 0 0 1-.697 1.102 3.216 3.216 0 0 1-1.044.737c-.39.171-.81.26-1.233.26a3.144 3.144 0 0 1-2.276-.998 3.488 3.488 0 0 1-.94-2.4c0-.446.083-.887.244-1.298.161-.412.398-.786.696-1.102a3.215 3.215 0 0 1 1.044-.736A3.08 3.08 0 0 1 8 5.178c1.776 0 3.217 1.522 3.217 3.395Z" fill="#3697E1"/></svg>