<svg width="17" height="23" fill="none" xmlns="http://www.w3.org/2000/svg"><path fill-rule="evenodd" clip-rule="evenodd" d="M8.515 0C3.942 0 .235 3.493.235 7.802c0 1.113.252 2.171.696 3.13L8.656 23 16.1 10.931c.457-.982.694-2.049.693-3.129C16.792 3.493 13.088 0 8.515 0Zm0 13.336a5.294 5.294 0 0 1-1.99-.39 5.209 5.209 0 0 1-1.687-1.11 5.087 5.087 0 0 1-1.124-1.655 5.003 5.003 0 0 1-.391-1.952 5.005 5.005 0 0 1 .392-1.95 5.09 5.09 0 0 1 1.124-1.656 5.21 5.21 0 0 1 1.686-1.107 5.26 5.26 0 0 1 5.666 1.108 5.046 5.046 0 0 1 0 7.212 5.26 5.26 0 0 1-3.676 1.5Zm3.327-5.173c.001.43-.084.854-.251 1.251a3.26 3.26 0 0 1-.721 1.061c-.31.304-.676.545-1.08.71a3.372 3.372 0 0 1-3.631-.711 3.234 3.234 0 0 1 0-4.62 3.337 3.337 0 0 1 1.08-.71c.403-.164.837-.249 1.274-.25 1.838 0 3.33 1.466 3.33 3.27Z" fill="#3697E1"/></svg>