<svg width="27" height="22" fill="none" xmlns="http://www.w3.org/2000/svg"><path d="M25.907 6.786c-.104-.78-.31-1.56-.62-2.08-.052-.052-.104-.156-.156-.208-.155-.156-.362-.26-.569-.364a.763.763 0 0 0-.672 0c-.052.052-.103.052-.155.104-.103.104-.207.26-.31.416a3.664 3.664 0 0 1-.362.468c-.155.156-.362.208-.569.312-.103-.208-.155-.416-.31-.572-.155-.208-.259-.416-.466-.624l-.413-.416-.466-.312c-.465-.312-.827-.624-1.24-.988-.156-.156-.363-.312-.518-.468-.93-.78-1.81-1.144-2.74-1.196-.931-.052-1.914.208-3.103.676-.569.26-.982.52-1.345.832-.362.312-.62.676-.982 1.144-.207 0-.362.052-.517.104-.207.052-.362.208-.62.416-.156.156-.31.312-.466.416l-.414.416c-1.086.156-1.913.364-2.689.676-.775.312-1.5.728-2.223 1.352a3.9 3.9 0 0 0-.776.832c-.207.312-.413.572-.569.884l-.465.468c-.155.156-.31.26-.517.312-.104.052-.155.052-.155.052v-.052c.258-.26.31-.624.31-.988.052.052.052.104.103.156.052.052.052.104.104.156l.103-.104.155.052c.052-.26.104-.52.052-.832-.052-.156-.103-.312-.258-.416 0-.052.051-.052.051-.104.052-.104.104-.208.104-.364L2.12 6.89l.104.052.155-.104-.207.052c-.31.052-.93.416-1.396.884-.155.156-.31.364-.414.572-.155.26-.155.468-.155.676.052.208.155.364.31.572.052.156.052.26.104.364.051.104.103.208.103.312.155.26.362.468.569.52.207.052.414.052.62 0-.051.26-.051.52-.103.78 0 .364 0 .78.052 1.248 0 .104 0 .208.051.312 0 .104.052.208.052.312-.052.104-.103.208-.103.312-.052.156-.104.364-.207.52l-.414.416-.362.364-.103.104c-.259.26-.31.312-.259.728.052.26.155.52.259.832.103.26.31.468.517.728.362.312.827.624 1.293.832.258.104.569.156.827.104 0 .052 0 .104-.052.104a2.543 2.543 0 0 0-.155.364c-.31.728 0 1.092.517 1.3.259.104.57.208.828.26.051 0 .103.052.207.052.31.104.93.26 1.447.312.57.052 1.086-.104 1.241-.624.052-.208.104-.364.104-.52v-.468c.155-.364.258-.468.362-.624 0-.052.052-.052.052-.104.103-.208.206-.312.206-.468v-.624c.31.052.673.052.983.052h.517c-.052 0-.103.052-.155.052 0 0-.052 0-.052.052-.465.208-.465.676-.31 1.092.103.416.362.832.569 1.04.362.52.672.988 1.034 1.196.414.26.879.26 1.5-.052.31-.156.413-.364.517-.572.051-.052.103-.156.155-.208a7.75 7.75 0 0 1 .775-.624c.104-.104.207-.156.362-.26.104.052.155.104.31.156.156.052.363.052.57.052H16.288c.362 0 .672 0 .879-.156.259-.156.362-.364.414-.78v-.416c0-.104-.052-.208-.155-.364v-1.144c0-.208-.052-.416-.104-.624a2.544 2.544 0 0 0-.207-.572c-.052-.156-.103-.26-.155-.416l-.103.052.103-.052c-.052-.208-.155-.416-.258-.624v-.156l.206.208.31.312c.207.208.414.416.673.572.258.156.517.26.879.208.362 0 .776-.156 1.138-.416.31-.26.568-.572.724-.936.051-.104.051-.208.103-.312 0-.104.052-.156.052-.26.517.104 1.137.104 1.654.052a4.565 4.565 0 0 0 1.5-.416c.672-.364 1.138-.884 1.5-1.508.413-.676.62-1.508.724-2.34-.052-.624-.104-1.56-.26-2.444Zm-7.757 6.292c-.155.52-.413 1.404.31 1.56.26.052.414.052.776-.156-.31.052-.465.052-.672 0-.207-.052-.31-.156-.362-.312.052.052.155.052.362.104.517.104 1.034-.104 1.138-.52.051-.208.051-.312.155-.624.103.052.207.052.362.104-.052.208-.155.416-.207.676-.155.572-.827 1.04-1.448.988-.569 0-.879-.364-1.293-.676-.258-.208-.517-.468-.775-.676-.672-.208-1.241-.468-1.862-.936.466.52.776.832 1.396 1.092-.103.936-.413 1.612-.672 2.496-.103.416-1.086 2.028-1.396 2.184-.207.104-1.396 1.144-1.655 1.3-.155.208-.31.52-.569.676-.775.416-1.292-.364-1.706-1.04-.207-.312-.724-1.196-.259-1.456.414-.208.673-.416 1.138-.676.052.104.155.26.259.364 0-.156-.052-.26-.052-.416a1.493 1.493 0 0 1 0-.676c0-.208.052-.468.052-.676-.052.26-.207.468-.259.728-.052.104-.052.156-.052.26-.982.208-2.016.208-2.999.052-.052-.364-.155-.78-.207-1.04v1.664c0 .364 0 .52-.207.832-.155.312-.258.364-.517.884 0 .312 0 .52-.051.832-.156.52-1.552.104-1.914 0-.465-.104-1.396-.312-1.189-.936.207-.52.362-1.092.465-1.872-.827-1.196-1.603-2.86-1.758-4.368-.103-1.144-.051-1.872.207-2.548.414-1.092.93-2.08 1.81-2.86 1.19-1.04 2.275-1.456 4.033-1.716-.413.468-.827.988-1.292 1.508-.466.52-.724 1.092-1.035 1.664-.413.832-.413 1.144.156 1.82.465.624.723.884.879 1.508-.156.364-.207.624-.259 1.092.569.624.983 1.04 1.5 1.144.517.104.982.104 1.448-.156 1.034-.52 2.016-1.248 3.205-1.3.57-1.352.518-2.496.207-3.848a23.137 23.137 0 0 1-.31-2.652c-.207.936-.258 1.768-.103 2.704.206 1.144.362 2.392-.207 3.38-1.086.104-2.017.728-3 1.248-.413.208-.775.208-1.24.104-.31-.052-.57-.312-1.035-.832 0-.52.104-.728.31-1.196.363-.728.776-1.404 1.242-2.132-.517.676-1.034 1.248-1.448 1.872-.155-.468-.414-.728-.776-1.248-.362-.52-.413-.728-.155-1.352.31-.624.517-1.144 1.034-1.664.828-.936 1.603-1.924 2.534-2.86.517-.468.724-.468 1.345-.572.62-.104 1.189-.208 1.81-.364a10.5 10.5 0 0 1-1.759.156c.569-.728.88-1.144 1.81-1.56 2.275-.988 3.723-1.092 5.481.416.466.416.88.78 1.345 1.092-.155 0-.31.052-.517.104.258-.052.517 0 .775.052.052.052.155.104.207.156.31.208.517.312.724.624.259.312.414.676.62 1.04-.103-.052-.206-.052-.31-.104-.051-.052-.155-.052-.206-.052-.156 0-.259 0-.414.104-.207.104-.465.208-.672.208.103.052.31.052.413 0h.052c-.052.052-.052.156-.103.26 0 .104 0 .26.051.364 0 .052.052.052.052.104-.103.052-.155.052-.258.104a4.956 4.956 0 0 1 1.24 0c.052.156.052.26.104.416h-.155c-.207-.156-.414-.156-.724-.052-.88.208-.672.728-1.086 1.508.414-.52.414-1.092 1.086-1.248.155-.052.258-.104.362-.052-.207.104-.362.26-.466.468-.206.572-.051.988-.31 1.508.259-.468.259-.884.517-1.404.104-.156.414-.468.57-.468h.154c.052.312.052.624.052.832a21.954 21.954 0 0 1-.207 1.404c.259-.312.362-.936.465-1.404a3.96 3.96 0 0 0 0-1.56c-.155-.728.57-.572.983-.936.31-.26.517-.624.776-.884.258-.26.724.104.827.416.465 1.144.672 2.964.569 4.16-.155 1.3-.776 2.756-1.913 3.38-1.448.832-3.207.312-4.654-.156-.31-.104-.518-.26-.776-.416.155.26.207.624.103.936Zm-1.292 5.252c-.052.52-.207.572-.724.572-.207 0-1.086 0-1.293-.052-.31-.052-.465-.052-.569-.104.466-.364 1.293-1.82 1.448-2.34.155-.52.362-.988.465-1.508.052.208.104.416.207.624.155.364.207.572.259.988 0 .416 0 .832.052 1.248.155.26.155.312.155.572ZM1.758 7.514a.833.833 0 0 0-.155.416c-.155.572.052 1.092-.465 1.508.258.468.207.676.775.468.207-.104.414-.208.57-.364-.052.208-.156.416-.208.624 0 .052 0 .052-.051.104-.414.156-.931.26-1.138-.156a2.584 2.584 0 0 1-.207-.676c-.672-.676.31-1.612.88-1.924Zm.052.624c0-.052 0-.156.052-.208 0-.052 0-.052.051-.104.156.104.156.208.207.416-.103-.104-.207-.156-.31-.104Zm.517 6.084c.31 1.04.828 2.132 1.396 3.016a3.595 3.595 0 0 1-.155.416c-.413.572-1.448-.26-1.758-.572-.362-.364-.569-.78-.62-1.144-.052-.26 0-.26.206-.468l.776-.78.155-.468Zm19.702-8.58c0 .052.051.104.051.156l-.051.052c-.052-.052-.104-.156-.155-.208h.155Z" fill="#1E1E1E"/></svg>